<svg xmlns:xlink="http://www.w3.org/1999/xlink" xmlns="http://www.w3.org/2000/svg" class="logo" width="130" height="49"><defs><symbol id="logo" viewBox="0 0 402 151">
		<path fill="#93C01F" d="M172.395 41.581h5.669c1.549 0 2.822 1.116 2.822 2.479v27.263h19.833c1.563 0 2.835-1.116 2.835-2.482V49.015c0-4.088 3.825-7.434 8.503-7.434h5.662c1.564 0 2.833 1.116 2.833 2.479v64.438c0 4.085-3.825 7.434-8.495 7.434h-5.671c-1.558 0-2.832-1.115-2.832-2.48V83.711h-19.83c-1.561 0-2.838 1.116-2.838 2.482v22.306c0 4.085-3.817 7.434-8.491 7.434h-5.669c-1.563 0-2.833-1.115-2.833-2.48V49.015c0-4.088 3.824-7.434 8.502-7.434m127.478 24.784v14.871h14.171c1.56 0 2.83-1.113 2.83-2.478V53.974h-2.83c-7.829 0-14.171 5.547-14.171 12.391m17.001-24.784h14.159c1.568 0 2.838 1.116 2.838 2.479v64.438c0 4.083-3.827 7.434-8.501 7.434h-5.661c-1.558 0-2.835-1.115-2.835-2.48V93.629h-14.167c-1.556 0-2.834 1.111-2.834 2.474v12.396c0 4.085-3.823 7.434-8.495 7.434h-5.668c-1.558 0-2.832-1.115-2.832-2.48V66.365c0-13.685 12.686-24.784 28.325-24.784h5.671zm-53.83 17.43v49.488c0 4.084-3.82 7.435-8.493 7.435h-5.668c-1.56 0-2.837-1.116-2.837-2.481V56.53h-16.999c-1.556 0-2.827-1.109-2.827-2.469v-5.046c0-4.088 3.824-7.434 8.497-7.434h45.326c1.556 0 2.835 1.115 2.835 2.479v2.478c0 4.088-3.819 9.992-8.498 9.992h-8.501c-1.559 0-2.835 1.116-2.835 2.481m87.821-17.43h5.67c1.556 0 2.833 1.116 2.833 2.479v27.263h19.829c1.56 0 2.84-1.116 2.84-2.482V49.015c0-4.088 3.819-7.434 8.495-7.434h5.663c1.561 0 2.832 1.116 2.832 2.479v64.438c0 4.085-3.819 7.434-8.495 7.434h-5.668c-1.562 0-2.827-1.115-2.827-2.48V83.711h-19.834c-1.567 0-2.835 1.116-2.835 2.482v22.306c0 4.085-3.825 7.434-8.503 7.434h-5.659c-1.559 0-2.831-1.115-2.831-2.48V49.015c0-4.088 3.825-7.434 8.49-7.434m-243.632 74.353h-5.668c-1.549 0-2.83-1.117-2.83-2.481V49.014c0-4.086 3.826-7.433 8.499-7.433h5.672c1.549 0 2.825 1.115 2.825 2.479v39.502L139.534 45.3c1.451-2.332 4.325-3.719 7.357-3.719h5.671c1.558 0 2.83 1.115 2.83 2.479v64.438c0 4.084-3.823 7.435-8.501 7.435h-5.664c-1.555 0-2.83-1.117-2.83-2.481v-39.5l-23.804 38.261c-1.449 2.333-4.323 3.721-7.36 3.721M40.301 40.508c-1.875-.017-9.653-1.064-14.846-6.981-3.806-4.34-4.973-10.248-5.325-13.637-.073-.678-.083-2.845-.083-2.845s1.923.429 2.595.574c3.18.648 8.527 2.342 12.267 6.606 1.861 2.132 3.093 6.726 3.909 9.125.156.462.589.742 1.072.713.483-.041.874-.387.961-.867.877-5.029 2.856-13.299 7.198-18.396C54.825 6.84 65.44 3.791 70.239 2.775c.651-.139 2.533-.184 2.533-.184s.02 1.619 0 2.281c-.102 4.773-1.142 15.283-7.873 23.185-8.423 9.9-21.63 12.477-24.598 12.451m26.03 2.813c-4.712-2.87-15.094-.282-15.094-.282-8.532 2.521-11.953 2.511-20.484 0 0 0-10.425-2.587-15.163.282 0 0-10.896 4.325-11.059 16.125 0 0-2.693 15.968 9.795 40.133 0 0 7.27 14.253 16.427 15.948 0 0 3.638.592 3.638-4.592 0 0-3.654-15.241-.178-18.422 0 0 2.539-2.222 6.81-2.14 3.64-.083 6.793 2.14 6.793 2.14 3.462 3.181-.188 18.422-.188 18.422 0 5.184 3.609 4.592 3.609 4.592 9.132-1.694 16.355-15.948 16.355-15.948 12.425-24.165 9.759-40.133 9.759-40.133-.162-11.8-11.02-16.125-11.02-16.125"></path>
		<path fill="#575756" d="M26.419 146.787H24.54l-.289-2.422h-9.545v-13.551h2.653v11.19h4.663v-11.19h2.655v11.19h1.742zm1.685-15.973h8.033v2.362h-5.383v3.154h4.899v2.363h-4.899v3.311h5.478v2.361h-8.128zm17.907 7.879h-4.957v5.672h-2.653v-13.551h2.653v5.516h4.957v-5.516h2.655v13.551h-2.655zm14.811-5.517h-3.951v11.189H54.22v-11.189h-3.971v-2.362h10.573zm1.565-2.226a18.423 18.423 0 0 1 1.792-.243 22.275 22.275 0 0 1 1.946-.087c.67 0 1.345.055 2.022.167a4.959 4.959 0 0 1 1.827.656c.544.33.987.788 1.327 1.377.344.586.511 1.35.511 2.295 0 .85-.144 1.57-.443 2.158a4.1 4.1 0 0 1-1.179 1.44 4.774 4.774 0 0 1-1.676.814 7.477 7.477 0 0 1-1.946.252h-.308c-.143 0-.29-.005-.444-.009a6.205 6.205 0 0 1-.458-.033 2.244 2.244 0 0 1-.317-.037v4.666h-2.654V130.95zm3.949 1.956c-.258 0-.502.01-.735.028a6.64 6.64 0 0 0-.561.069v4.394a4.718 4.718 0 0 0 .901.078h.239c.349 0 .697-.031 1.035-.099.347-.063.651-.182.921-.356.273-.173.488-.417.648-.725.162-.31.245-.716.245-1.22 0-.427-.077-.778-.233-1.056a1.89 1.89 0 0 0-.612-.667 2.327 2.327 0 0 0-.858-.348 4.947 4.947 0 0 0-.99-.098m7.319-2.092h2.652v4.859c.142-.027.367-.059.677-.095.309-.039.613-.06.91-.06.645 0 1.259.065 1.848.194a3.932 3.932 0 0 1 1.54.687c.438.329.789.776 1.044 1.334.261.563.39 1.269.39 2.123 0 1.573-.459 2.751-1.375 3.531-.917.782-2.278 1.173-4.082 1.173-.186 0-.416-.003-.7-.01a16.22 16.22 0 0 1-.92-.052 30.88 30.88 0 0 1-1.015-.093 7.292 7.292 0 0 1-.968-.175v-13.416zm3.794 11.385c.736 0 1.332-.172 1.792-.517.457-.341.686-.911.686-1.712 0-.427-.066-.773-.192-1.045a1.627 1.627 0 0 0-.523-.637 1.99 1.99 0 0 0-.775-.323 5.137 5.137 0 0 0-1.603-.038c-.249.035-.42.07-.525.108v4.044c.142.039.312.07.51.087.2.021.412.033.63.033m6.658-11.385h2.655v13.551h-2.655v-13.551zm18.18 6.039l.155-1.76h-.097l-.91 1.821-5.052 7.451h-1.996v-13.551h2.653v7.375l-.191 1.822h.111l.951-1.88 5.05-7.317h1.978v13.551h-2.652zm15.702.485l.289-2.691h-.116l-.833 2.169-2.886 5.053h-.848l-3.043-5.074-.85-2.148h-.097l.385 2.673v7.045h-2.516v-13.551h2.42l3.621 6.194.639 1.549h.08l.579-1.587 3.426-6.156h2.402v13.551h-2.652zm12.564-4.162h-4.745v11.189h-2.649v-13.551h10.047v13.551h-2.653zm12.253 0h-2.887a155.401 155.401 0 0 1-.171 3.351 42.382 42.382 0 0 1-.264 2.717c-.11.806-.253 1.521-.434 2.141a6.448 6.448 0 0 1-.698 1.605 2.952 2.952 0 0 1-.612.735 3.064 3.064 0 0 1-1.43.707 3.664 3.664 0 0 1-.667.067c-.299 0-.547-.022-.746-.067a2.855 2.855 0 0 1-.59-.201l.291-2.287a1.433 1.433 0 0 0 .465.08c.207 0 .407-.053.609-.154.203-.104.374-.277.513-.523.194-.284.362-.7.505-1.249.143-.55.264-1.25.375-2.101.11-.852.197-1.868.262-3.048.062-1.181.11-2.557.135-4.134h7.995v13.551h-2.65v-11.19zm11.846 8.186h-4.16l-1.025 3.003h-2.655l4.876-13.647h1.958l4.881 13.647h-2.792l-1.083-3.003zm-3.483-2.125h2.903l-1.003-3.022-.413-2.129h-.094l-.405 2.149-.988 3.002zm16.319-.544h-4.957v5.672h-2.652v-13.551h2.652v5.516h4.957v-5.516h2.653v13.551h-2.653zm14.809-5.517h-3.946v11.189h-2.656v-11.189h-3.969v-2.362h10.571zm6.737 8.186h-4.161l-1.026 3.003h-2.653l4.881-13.647h1.953l4.88 13.647h-2.79l-1.084-3.003zm-3.485-2.125h2.904l-1.006-3.022-.408-2.129h-.096l-.404 2.149-.99 3.002zm20.422 7.55h-1.877l-.287-2.422h-9.546v-13.551h2.653v11.19h4.663v-11.19h2.658v11.19h1.736zm9.587-9.934l.155-1.76h-.1l-.908 1.821-5.052 7.451h-1.995v-13.551h2.652v7.375l-.194 1.822h.116l.95-1.88 5.052-7.317h1.976v13.551h-2.652zm13.086 0l.156-1.76h-.101l-.908 1.821-5.049 7.451h-1.999v-13.551h2.653v7.375l-.197 1.822h.122l.945-1.88 5.055-7.317h1.975v13.551h-2.652zm18.178 0l.157-1.76h-.098l-.91 1.821-5.052 7.451h-1.995v-13.551h2.653v7.375l-.193 1.822h.117l.945-1.88 5.054-7.317h1.974v13.551h-2.652zm19.204 6.959c-.413.291-.937.503-1.58.636a10.12 10.12 0 0 1-1.963.189 7.13 7.13 0 0 1-2.316-.376 4.958 4.958 0 0 1-1.923-1.221c-.557-.563-1-1.291-1.327-2.188-.329-.897-.492-1.984-.492-3.261 0-1.329.183-2.441.551-3.341.365-.896.845-1.62 1.433-2.167a5.276 5.276 0 0 1 1.966-1.181 6.886 6.886 0 0 1 2.166-.359c.777 0 1.431.052 1.968.158.535.103.977.224 1.326.366l-.523 2.244a3.827 3.827 0 0 0-1.055-.308 9.716 9.716 0 0 0-1.48-.097c-1.074 0-1.933.379-2.587 1.143-.653.765-.975 1.946-.975 3.552 0 .696.076 1.334.231 1.91.154.574.389 1.067.705 1.475.316.406.711.723 1.177.952.474.226 1.02.339 1.64.339.581 0 1.073-.059 1.47-.173.403-.116.75-.267 1.048-.446l.54 2.154zm11.344-10.636h-3.946v11.189h-2.656v-11.189h-3.966v-2.362h10.568zm.388 4.415c0-2.259.497-3.999 1.49-5.218.993-1.221 2.414-1.831 4.261-1.831.966 0 1.811.168 2.535.504.72.334 1.321.814 1.799 1.434.475.619.834 1.36 1.065 2.227.232.865.35 1.826.35 2.884 0 2.257-.501 3.997-1.5 5.216-1.004 1.222-2.416 1.83-4.249 1.83-.984 0-1.835-.165-2.556-.504a4.702 4.702 0 0 1-1.793-1.433c-.473-.619-.821-1.36-1.055-2.228-.231-.864-.347-1.824-.347-2.881m2.786 0c0 .682.058 1.312.176 1.887.115.572.291 1.067.532 1.48.239.412.544.735.918.967.375.232.822.351 1.339.351.94 0 1.669-.369 2.185-1.105.519-.737.778-1.929.778-3.58 0-.66-.057-1.271-.167-1.841a5.019 5.019 0 0 0-.513-1.49 2.663 2.663 0 0 0-.911-.998c-.374-.237-.83-.357-1.372-.357-.945 0-1.675.378-2.19 1.133-.516.753-.775 1.94-.775 3.553m21.317-.253l.292-2.691h-.117l-.835 2.169-2.883 5.053h-.852l-3.041-5.074-.852-2.148h-.096l.39 2.673v7.045h-2.519v-13.551h2.423l3.617 6.194.638 1.549h.075l.585-1.587 3.423-6.156h2.4v13.551h-2.648zm11.845 4.024h-4.16l-1.029 3.003h-2.651l4.882-13.647h1.954l4.881 13.647h-2.793l-1.084-3.003zm-3.482-2.125h2.903l-1.006-3.022-.408-2.129h-.096l-.409 2.149-.984 3.002zm16.823-6.061h-3.949v11.189h-2.653v-11.189h-3.968v-2.362h10.57zm.389 4.415c0-2.259.493-3.999 1.488-5.218.994-1.221 2.413-1.831 4.261-1.831.964 0 1.813.168 2.532.504a4.78 4.78 0 0 1 1.806 1.434c.478.619.832 1.36 1.062 2.227.233.865.348 1.826.348 2.884 0 2.257-.496 3.997-1.497 5.216-1.002 1.222-2.418 1.83-4.25 1.83-.984 0-1.834-.165-2.559-.504a4.674 4.674 0 0 1-1.789-1.433c-.473-.619-.818-1.36-1.054-2.228-.234-.864-.348-1.824-.348-2.881m2.787 0c0 .682.056 1.312.175 1.887.117.572.294 1.067.532 1.48.238.412.543.735.92.967.373.232.818.351 1.335.351.943 0 1.67-.369 2.183-1.105.524-.737.776-1.929.776-3.58 0-.66-.055-1.271-.163-1.841a5.134 5.134 0 0 0-.512-1.49 2.62 2.62 0 0 0-.913-.998c-.374-.237-.832-.357-1.371-.357-.945 0-1.669.378-2.188 1.133-.516.753-.774 1.94-.774 3.553m17.556-4.415h-2.884a175.342 175.342 0 0 1-.175 3.351 36.79 36.79 0 0 1-.263 2.717 14.64 14.64 0 0 1-.433 2.141 6.34 6.34 0 0 1-.699 1.605 2.987 2.987 0 0 1-.609.735c-.227.195-.458.35-.705.466a2.96 2.96 0 0 1-.726.241 3.66 3.66 0 0 1-.67.067 3.42 3.42 0 0 1-.743-.067 2.917 2.917 0 0 1-.595-.201l.291-2.287a1.448 1.448 0 0 0 .47.08c.202 0 .405-.053.604-.154.202-.104.371-.277.515-.523.191-.284.361-.7.506-1.249.14-.55.264-1.25.374-2.101.111-.852.196-1.868.264-3.048.064-1.181.107-2.557.135-4.134h7.994v13.551h-2.652v-11.19zm4.746 4.415c0-2.259.494-3.999 1.489-5.218.994-1.221 2.409-1.831 4.259-1.831.968 0 1.811.168 2.536.504a4.735 4.735 0 0 1 1.799 1.434c.479.619.834 1.36 1.067 2.227.231.865.35 1.826.35 2.884 0 2.257-.502 3.997-1.505 5.216-.998 1.222-2.415 1.83-4.247 1.83-.982 0-1.833-.165-2.555-.504a4.702 4.702 0 0 1-1.793-1.433c-.469-.619-.823-1.36-1.053-2.228-.232-.864-.347-1.824-.347-2.881m2.788 0c0 .682.058 1.312.175 1.887.111.572.292 1.067.53 1.48.24.412.548.735.92.967.375.232.821.351 1.336.351.938 0 1.672-.369 2.189-1.105.513-.737.772-1.929.772-3.58 0-.66-.057-1.271-.161-1.841a5.165 5.165 0 0 0-.516-1.49 2.683 2.683 0 0 0-.909-.998c-.376-.237-.836-.357-1.376-.357-.943 0-1.67.378-2.188 1.133-.52.753-.772 1.94-.772 3.553m18.68-4.415h-5.226v11.189h-2.653v-13.551h7.879zm9.081 3.677l.155-1.76h-.101l-.906 1.821-5.056 7.451h-1.989v-13.551h2.649v7.375l-.196 1.822h.122l.941-1.88 5.057-7.317h1.973v13.551h-2.649zm13.083 0l.158-1.76h-.097l-.909 1.821-5.053 7.451h-1.998v-13.551h2.653v7.375l-.192 1.822h.116l.946-1.88 5.056-7.317h1.976v13.551h-2.656z"></path>
	</symbol></defs>
                            <use xlink:href="#logo"></use>
                        </svg>